<svg width="194" height="194" fill="none" xmlns="http://www.w3.org/2000/svg"><path d="M33.293 131.765C7.54 106.141 0 98.107 0 96.5 0 93.456 65.57 28 68.62 28c1.61 0 5.252 3.129 15.249 13.108l13.046 13.108 13.216-13.108C120.212 31.129 122.599 28 125.549 28c2.951 0 8.98 6.85 34.565 32.559 17.875 17.844 32.785 32.981 33.208 33.573.339.592.678 1.86.678 2.79C194 98.784 128.26 165 126.397 165c-2.542 0-6.354-3.129-17.537-14.292l-11.775-11.924-13.216 13.108C74.127 161.533 70.06 165 68.535 165c-1.525 0-9.827-7.865-35.242-33.235Zm45.747 8.879 9.912-9.894-15.672-15.645c-14.318-14.207-15.673-15.899-15.673-18.52 0-2.707 1.44-4.398 15.672-18.69L88.953 62.25 78.786 52.102 68.62 41.954 41.257 69.269 13.978 96.5l27.11 27.062c14.91 14.884 27.278 27.061 27.532 27.061.254 0 4.914-4.482 10.42-9.979Zm73.873-17.082c14.656-14.631 26.685-26.808 26.685-27.062 0-.254-12.199-12.6-27.109-27.485L125.38 41.954l-9.742 9.725c-5.338 5.328-9.743 10.064-9.743 10.571 0 .423 6.862 7.696 15.164 16.068 9.827 9.81 15.419 16.068 15.842 17.59.509 2.199-.593 3.467-15.249 18.182-8.641 8.711-15.757 16.237-15.757 16.66 0 1.099 18.892 19.958 19.654 19.704.339-.169 12.623-12.262 27.364-26.892Zm-42.358-39.747C103.608 76.88 97.508 71.13 97 71.13c-.508 0-6.608 5.75-13.555 12.685L70.738 96.5l13.131 13.108L97 122.716l13.131-13.108L123.262 96.5l-12.707-12.685Z" fill="#000"/><style>@media (prefers-color-scheme:dark){path{fill: white;}}</style></svg>